<svg xmlns="http://www.w3.org/2000/svg" xmlns:xlink="http://www.w3.org/1999/xlink" width="500" zoomAndPan="magnify" viewBox="0 0 375 374.999991" height="500" preserveAspectRatio="xMidYMid meet" version="1.0"><defs><g/><clipPath id="776bd2d5eb"><path d="M 9.425781 9.425781 L 365.574219 9.425781 L 365.574219 365.574219 L 9.425781 365.574219 Z M 9.425781 9.425781 " clip-rule="nonzero"/></clipPath><clipPath id="401fc9f10b"><path d="M 26.675781 9.425781 L 348.324219 9.425781 C 352.898438 9.425781 357.289062 11.242188 360.523438 14.476562 C 363.757812 17.710938 365.574219 22.101562 365.574219 26.675781 L 365.574219 348.324219 C 365.574219 352.898438 363.757812 357.289062 360.523438 360.523438 C 357.289062 363.757812 352.898438 365.574219 348.324219 365.574219 L 26.675781 365.574219 C 22.101562 365.574219 17.710938 363.757812 14.476562 360.523438 C 11.242188 357.289062 9.425781 352.898438 9.425781 348.324219 L 9.425781 26.675781 C 9.425781 22.101562 11.242188 17.710938 14.476562 14.476562 C 17.710938 11.242188 22.101562 9.425781 26.675781 9.425781 Z M 26.675781 9.425781 " clip-rule="nonzero"/></clipPath><clipPath id="59ef8dfe4f"><path d="M 0.425781 0.425781 L 356.574219 0.425781 L 356.574219 356.574219 L 0.425781 356.574219 Z M 0.425781 0.425781 " clip-rule="nonzero"/></clipPath><clipPath id="5619dfe933"><path d="M 17.675781 0.425781 L 339.324219 0.425781 C 343.898438 0.425781 348.289062 2.242188 351.523438 5.476562 C 354.757812 8.710938 356.574219 13.101562 356.574219 17.675781 L 356.574219 339.324219 C 356.574219 343.898438 354.757812 348.289062 351.523438 351.523438 C 348.289062 354.757812 343.898438 356.574219 339.324219 356.574219 L 17.675781 356.574219 C 13.101562 356.574219 8.710938 354.757812 5.476562 351.523438 C 2.242188 348.289062 0.425781 343.898438 0.425781 339.324219 L 0.425781 17.675781 C 0.425781 13.101562 2.242188 8.710938 5.476562 5.476562 C 8.710938 2.242188 13.101562 0.425781 17.675781 0.425781 Z M 17.675781 0.425781 " clip-rule="nonzero"/></clipPath><clipPath id="030befaacd"><rect x="0" width="357" y="0" height="357"/></clipPath></defs><g clip-path="url(#776bd2d5eb)"><g clip-path="url(#401fc9f10b)"><g transform="matrix(1, 0, 0, 1, 9, 9)"><g clip-path="url(#030befaacd)"><g clip-path="url(#59ef8dfe4f)"><g clip-path="url(#5619dfe933)"><path fill="#16a249" d="M 0.425781 0.425781 L 356.574219 0.425781 L 356.574219 356.574219 L 0.425781 356.574219 Z M 0.425781 0.425781 " fill-opacity="1" fill-rule="nonzero"/></g></g></g></g></g></g><g fill="#f7f7f7" fill-opacity="1"><g transform="translate(13.784423, 224.67503)"><g><path d="M 69.1875 31.625 L 63.484375 31.625 C 53.554688 31.625 46.175781 29.296875 41.34375 24.640625 C 36.507812 19.984375 34.09375 12.925781 34.09375 3.46875 L 34.09375 -23.0625 C 34.09375 -25.582031 33.804688 -27.832031 33.234375 -29.8125 C 32.671875 -31.789062 31.679688 -33.460938 30.265625 -34.828125 C 28.859375 -36.191406 26.984375 -37.234375 24.640625 -37.953125 C 22.304688 -38.671875 19.363281 -39.03125 15.8125 -39.03125 L 12.5 -39.03125 L 12.5 -49.75 L 15.8125 -49.75 C 19.5625 -49.75 22.617188 -50.054688 24.984375 -50.671875 C 27.359375 -51.296875 29.210938 -52.234375 30.546875 -53.484375 C 31.878906 -54.742188 32.800781 -56.351562 33.3125 -58.3125 C 33.832031 -60.269531 34.09375 -62.582031 34.09375 -65.25 L 34.09375 -83.53125 C 34.09375 -87.851562 34.601562 -91.75 35.625 -95.21875 C 36.65625 -98.6875 38.34375 -101.640625 40.6875 -104.078125 C 43.03125 -106.523438 46.0625 -108.40625 49.78125 -109.71875 C 53.507812 -111.03125 58.078125 -111.6875 63.484375 -111.6875 L 69.1875 -111.6875 L 69.1875 -100.890625 L 64.640625 -100.890625 C 52.710938 -100.890625 46.75 -95.101562 46.75 -83.53125 L 46.75 -65.5625 C 46.75 -53.019531 41.320312 -45.953125 30.46875 -44.359375 C 41.414062 -43.273438 46.890625 -36.226562 46.890625 -23.21875 L 46.890625 3.15625 C 46.890625 14.9375 52.804688 20.828125 64.640625 20.828125 L 69.1875 20.828125 Z M 69.1875 31.625 "/></g></g></g><g fill="#f7f7f7" fill-opacity="1"><g transform="translate(100.636376, 224.67503)"><g><path d="M 80.765625 0 L 63.484375 0 L 25.765625 -49.4375 L 25.765625 0 L 12.03125 0 L 12.03125 -100.8125 L 25.765625 -100.8125 L 25.765625 -54 L 62.703125 -100.8125 L 78.984375 -100.8125 L 39.1875 -52.90625 Z M 80.765625 0 "/></g></g></g><g fill="#f7f7f7" fill-opacity="1"><g transform="translate(187.48833, 224.67503)"><g><path d="M 78.375 -69.953125 C 78.375 -65.847656 77.597656 -61.773438 76.046875 -57.734375 C 74.503906 -53.691406 72.113281 -50.078125 68.875 -46.890625 C 65.632812 -43.703125 61.492188 -41.117188 56.453125 -39.140625 C 51.421875 -37.160156 45.40625 -36.171875 38.40625 -36.171875 L 25.921875 -36.171875 L 25.921875 0 L 12.1875 0 L 12.1875 -100.8125 L 40.578125 -100.8125 C 45.554688 -100.8125 50.332031 -100.257812 54.90625 -99.15625 C 59.488281 -98.050781 63.515625 -96.265625 66.984375 -93.796875 C 70.460938 -91.328125 73.226562 -88.140625 75.28125 -84.234375 C 77.34375 -80.328125 78.375 -75.566406 78.375 -69.953125 Z M 64.09375 -69.34375 C 64.09375 -75.820312 61.972656 -80.78125 57.734375 -84.21875 C 53.492188 -87.664062 47.566406 -89.390625 39.953125 -89.390625 L 25.921875 -89.390625 L 25.921875 -47.90625 L 38.71875 -47.90625 C 46.84375 -47.90625 53.101562 -49.675781 57.5 -53.21875 C 61.894531 -56.769531 64.09375 -62.144531 64.09375 -69.34375 Z M 64.09375 -69.34375 "/></g></g></g><g fill="#f7f7f7" fill-opacity="1"><g transform="translate(274.340283, 224.67503)"><g><path d="M 17.65625 -111.6875 L 23.375 -111.6875 C 33.300781 -111.6875 40.679688 -109.359375 45.515625 -104.703125 C 50.347656 -100.054688 52.765625 -93 52.765625 -83.53125 L 52.765625 -65.71875 C 52.765625 -63.195312 53.046875 -60.945312 53.609375 -58.96875 C 54.171875 -56.988281 55.160156 -55.316406 56.578125 -53.953125 C 57.992188 -52.585938 59.882812 -51.546875 62.25 -50.828125 C 64.613281 -50.109375 67.566406 -49.75 71.109375 -49.75 L 74.4375 -49.75 L 74.4375 -39.03125 L 71.109375 -39.03125 C 67.359375 -39.03125 64.285156 -38.71875 61.890625 -38.09375 C 59.503906 -37.476562 57.640625 -36.539062 56.296875 -35.28125 C 54.960938 -34.03125 54.039062 -32.425781 53.53125 -30.46875 C 53.019531 -28.507812 52.765625 -26.195312 52.765625 -23.53125 L 52.765625 3.46875 C 52.765625 7.789062 52.25 11.6875 51.21875 15.15625 C 50.1875 18.625 48.515625 21.578125 46.203125 24.015625 C 43.890625 26.460938 40.851562 28.34375 37.09375 29.65625 C 33.34375 30.96875 28.769531 31.625 23.375 31.625 L 17.65625 31.625 L 17.65625 20.828125 L 22.296875 20.828125 C 34.171875 20.828125 40.109375 15.039062 40.109375 3.46875 L 40.109375 -23.21875 C 40.109375 -35.757812 45.535156 -42.804688 56.390625 -44.359375 C 45.429688 -45.535156 39.953125 -52.601562 39.953125 -65.5625 L 39.953125 -83.234375 C 39.953125 -95.003906 34.066406 -100.890625 22.296875 -100.890625 L 17.65625 -100.890625 Z M 17.65625 -111.6875 "/></g></g></g></svg>