<svg xmlns="http://www.w3.org/2000/svg" viewBox="0 0 140 171" id="logo_full"><g fill-rule="evenodd"><path fill="#C5050C" d="M0 132.648h139.913V.104H0z"></path><path d="M84.716 65.88c-.302 0-.15-.374-.064-.59.735-1.125 2.255-1.386 3.596-1.21 1.503.393 2.506.855 3.723 1.503l.595.297c-2.425.072-5.356.088-7.85 0zM63.604 38.504l-.216 13.629c-.087 2.902-.044 5.887-.955 8.44-1.04 2.38-3.204 4.113-5.89 4.242l-.734-.017v1.227c-3.035-.691-6.024-1.514-9.228-1.685-.216-.132-.562-.045-.562-.392l.26-.951c1.213-3.074 2.252-6.233 3.637-9.218 2.814-7.358 5.848-14.671 8.618-21.984 1.604-3.72 2.858-7.444 4.897-10.906l.173.302c.128 5.669-.09 11.599 0 17.313zM60.138 74.94c1.168 1.471 2.036 3.202 2.9 4.803.997 2.38 1.865 4.89 2.34 7.487.564 3.506.605 7.53 0 10.994-1.038 6.402-3.899 11.943-8.791 16.184-.044.042-.044.132-.044.216l-.173-.041c-4.375 3.634-10.657 5.494-16.413 3.502-3.511-.994-6.197-3.16-8.623-5.71-5.761-5.931-7.795-14.455-7.102-23.287 1.04-9.299 6.237-18.303 15.29-21.374 7.927-2.728 16.024 1.167 20.616 7.226zM26.57 62.608c-1.08-.91-1.946-2.295-2.384-3.72-.389-1.473-.256-3.033-.389-4.59l-.346-13.07c0-.302 0-.78-.042-1.168l-.13-10.472v-2.596l.043-.087-.086-.131.086-5.971.172-.693c.912 1.385 1.56 3.073 2.21 4.587 1.603 3.896 3.247 7.748 4.807 11.686l4.723 11.682 5.802 13.98c.215.69.608 1.341.608 2.077-.998.564-2.34.433-3.465.823-1.562.258-3.077.649-4.506 1.212v-1.471c-2.684.042-5.111-.606-7.103-2.078zm98.36 46.22c-.82 2.897-3.033 5.323-5.497 6.967-4.852 3.068-11.525 2.205-17.282 2.247-3.12-.128-6.11-1.77-7.623-4.412-.952-1.602-1.127-3.549-.998-5.583-.13-4.975-.26-9.91.046-14.887.172-.343.647-.343.995-.386h14.468c1.559.043 3.117.214 4.457.775 2.901 1.472 4.721 4.397 4.461 7.817h1.95V81.432h-2.084c-.043.996-.04 2.033-.298 2.987-.475 2.25-2.512 4.587-4.807 5.193l-1.386.389c-5.745.303-11.651.258-17.368 0-.518-.475-.563-.952-.563-1.427l-.087-14.15.087-5.023c.045-.26.175-.475.433-.562l5.023-.13 13.601.046c3.55.04 7.104.777 9.57 3.2 2.773 2.553 3.64 6.449 3.338 10.558h1.93V65.88l-11.058.005c3.454-1.33 6.528-3.494 8.78-6.09 3.466-3.94 4.242-10.993 1.688-15.624-2.556-5.365-8.447-7.27-13.815-8.612-.13 0-.216-.215-.392-.086-2.553-.736-5.153-1.254-7.752-1.946-.13-.175-.518-.175-.734-.261-1.041-.13-1.952-.476-2.948-.736-3.335-1.298-7.448-1.557-9.743-4.675-1.387-2.116-1.214-5.322.172-7.398 3.466-4.848 9.571-6.19 15.637-5.973 4.503.172 8.446 2.208 11.564 5.065 2.858 3.115 5.501 6.447 5.152 11.251h2.079V11.886h-1.647c-.129.563-.26 1.127-.56 1.646-.91 1.038-2.253 1.689-3.725 1.3-1.947-.564-3.77-1.257-5.76-1.776-3.597-.995-7.408-1.471-11.348-1.428-5.459.433-10.827 1.557-15.072 4.37-2.858 1.69-4.939 4.459-6.196 7.359-1.082 2.986-1.037 7.01.22 9.823 1.602 4.328 5.24 7.185 9.051 8.57 5.24 1.687 10.524 3.114 15.937 4.368 4.29 1.125 9.834 1.905 11.304 6.881.869 3.378-.692 6.363-3.117 8.57-5.11 4.285-13.818 5.022-20.012 2.25-6.45-2.681-10.973-9.26-10.8-16.576l-2.298.029.022 17.283c0 .39 0 .91-.261 1.213-1.691.301-3.25-.65-4.506-1.473-2.38-1.472-2.903-4.112-3.075-6.708-.389-4.671-.214-9.564-.345-14.238v-18.74c.086-1.989.086-4.152.91-5.97 1.213-2.64 3.984-4.197 7.016-4.284v-1.818H63.56c-.216.261-.216.648-.434.867-1.125 3.028-2.295 6.186-3.465 9.26l-4.63 11.944c-1.999 5.017-3.989 10.04-6.241 14.974-.3.52-.476 1.165-.954 1.47-1.212-1.902-1.991-4.025-2.858-6.188L40.52 34.088c-2.772-7.228-5.676-14.28-8.448-21.551h-19.45l-.017 1.818c2.814.044 5.475.65 6.952 2.986 1.166 1.73.82 4.154 1.037 6.274l.392 12.638c.173 7.226.173 14.494-.306 21.679-.346 2.47-2.034 4.718-4.331 5.8-1.17.521-2.256 1.013-3.726.93v2.186H31.55a64.119 64.119 0 00-5.413 2.984c-7.45 5.022-12.212 12.985-12.907 22.115-.257 3.29.565 6.278 1.387 9.176 2.167 6.924 7.491 12.335 13.6 15.884 5.977 3.678 13.555 4.629 21.047 4.024 5.028-.607 9.662-2.34 13.861-4.76 8.056-4.977 13.082-13.374 13.297-23.111-.042-2.683-.52-5.149-1.126-7.57-1.861-6.58-6.412-12.121-12.17-15.583l-4.764-2.855 17.323-.086c2.254-.044 4.204 1.21 5.501 2.766 2.21 2.729 1.648 6.927 1.909 10.43l.127 12.814c-.088 4.93-.175 9.952-.218 14.928-.04 2.597-.389 5.193-1.99 7.01-2.211 2.77-5.674 3.636-9.271 3.376v2.25h56.141l-.049-19.689h-1.864c-.045 2.726-.259 5.41-1.04 7.878z" fill="#FFFFFE"></path><path d="M40.993 123.755l.09.045" fill="#1A1919"></path><path d="M132.325 118.925c.459 0 .867-.033.867-.58 0-.44-.4-.523-.779-.523h-.736v1.103h.648zm-.648 2.007h-.543v-3.57h1.362c.842 0 1.261.31 1.261 1.015 0 .638-.4.918-.926.984l1.018 1.571h-.608l-.941-1.547h-.623v1.547zm.653.798c1.405 0 2.51-1.1 2.51-2.59 0-1.469-1.105-2.573-2.51-2.573-1.418 0-2.524 1.104-2.524 2.574 0 1.488 1.106 2.589 2.524 2.589zm-3.147-2.59c0-1.778 1.44-3.087 3.147-3.087 1.688 0 3.134 1.31 3.134 3.088 0 1.791-1.446 3.103-3.134 3.103-1.706 0-3.147-1.312-3.147-3.103z" fill="#FFFFFE"></path><path d="M0 170.688h139.914v-28.18H0z"></path><path d="M18.24 163.469c-1.013.962-2.413 1.442-4.202 1.442-1.813 0-3.216-.477-4.211-1.432-.994-.955-1.491-2.429-1.491-4.42v-9.086h2.945v9.086c0 .395.03.784.094 1.166.062.382.194.72.394 1.014.2.293.478.53.834.715.357.185.835.276 1.435.276 1.05 0 1.776-.255 2.176-.767.4-.512.6-1.313.6-2.404v-9.086h2.946v9.086c0 1.978-.507 3.448-1.52 4.41M26.624 149.973l5.59 9.802h.038v-9.802h2.756v14.61h-2.944l-5.571-9.78h-.037v9.78h-2.758v-14.61h2.926M39.004 164.584h2.944v-14.61h-2.944zM48.85 164.584l-4.332-14.61h3.02l2.982 10.271h.037l3.02-10.272h3.04l-4.447 14.61h-3.32M69.184 149.973v2.701h-7.072v3.132h6.49v2.495h-6.49v3.582h7.221v2.7H59.168v-14.61h10.016M78.9 156.582c.675 0 1.182-.164 1.52-.49.337-.328.506-.86.506-1.596 0-.71-.169-1.225-.506-1.545-.338-.32-.845-.482-1.52-.482h-3.227v4.113H78.9zm1.05-6.609c.6 0 1.142.106 1.623.317a3.727 3.727 0 012.025 2.148c.182.485.273 1.007.273 1.566 0 .86-.166 1.603-.497 2.23-.332.629-.872 1.106-1.623 1.433v.041c.362.11.663.276.9.502.237.224.432.49.582.798.15.306.259.644.328 1.012.068.37.116.737.14 1.106.013.232.026.505.038.819.013.313.034.633.066.961.031.327.081.638.15.93.069.295.172.543.309.748H81.32c-.163-.464-.263-1.016-.3-1.657a26.826 26.826 0 00-.17-1.843c-.1-.763-.312-1.322-.638-1.678-.324-.354-.855-.531-1.593-.531h-2.946v5.709H72.73v-14.61h7.222zM89.929 160.982c.162.341.378.618.646.829.27.212.585.369.948.471.362.102.738.153 1.125.153.263 0 .544-.023.845-.072.3-.046.58-.14.843-.276s.481-.324.657-.563c.175-.238.263-.542.263-.91 0-.396-.116-.716-.348-.962a2.726 2.726 0 00-.91-.614 8.523 8.523 0 00-1.275-.43 32.143 32.143 0 01-1.445-.409c-.5-.136-.987-.303-1.462-.501a4.901 4.901 0 01-1.276-.768 3.546 3.546 0 01-.91-1.176c-.23-.471-.347-1.04-.347-1.71 0-.749.148-1.4.441-1.953a4.26 4.26 0 011.154-1.381 4.87 4.87 0 011.613-.819c.6-.177 1.2-.266 1.8-.266.7 0 1.373.085 2.017.256.644.17 1.216.447 1.717.829.5.381.896.87 1.191 1.463.294.593.441 1.313.441 2.16h-2.852c-.025-.437-.11-.8-.253-1.086a1.768 1.768 0 00-.572-.675 2.288 2.288 0 00-.816-.348 4.61 4.61 0 00-1.003-.103c-.238 0-.476.028-.713.082-.237.056-.453.15-.647.287a1.704 1.704 0 00-.478.511c-.125.205-.188.464-.188.778 0 .287.05.52.15.696.1.178.296.341.59.492.295.15.702.3 1.22.449.519.15 1.198.341 2.035.573.25.055.597.154 1.041.296.443.144.884.372 1.322.686.438.315.817.734 1.135 1.259.32.526.479 1.197.479 2.015 0 .67-.119 1.29-.356 1.863a4.02 4.02 0 01-1.06 1.484c-.47.415-1.05.74-1.745.972-.694.232-1.498.347-2.41.347a7.817 7.817 0 01-2.148-.297 5.202 5.202 0 01-1.838-.93 4.53 4.53 0 01-1.267-1.617c-.312-.655-.462-1.432-.45-2.332h2.852c0 .49.08.907.244 1.247M101.257 164.584h2.945v-14.61h-2.945zM107.148 152.674v-2.7h10.972v2.7h-4.014v11.91h-2.945v-11.91h-4.013M119.62 149.973h3.302l3.132 5.771 3.113-5.77h3.282l-4.97 9.003v5.607h-2.945v-5.688l-4.914-8.923" fill="#FFF"></path></g></svg>